<svg id="svg" version="1.1" width="800" height="800" xmlns="http://www.w3.org/2000/svg">
    <path
        d="M383.042 77.030 C 362.761 79.839,346.528 84.529,332.500 91.632 C 293.594 111.331,273.521 149.111,275.264 199.357 C 276.019 221.112,279.042 232.187,290.937 256.766 C 295.923 267.070,300.002 276.288,300.002 277.250 C 300.000 278.559,299.177 279.000,296.736 279.000 C 292.249 279.000,255.896 269.338,236.793 263.069 C 216.699 256.474,209.748 255.039,197.799 255.017 C 186.770 254.998,180.015 256.205,172.628 259.517 C 160.081 265.142,150.759 274.754,143.548 289.500 C 137.375 302.122,135.000 312.227,135.000 325.865 C 135.000 345.026,140.777 358.125,155.059 371.348 C 167.318 382.698,182.530 390.759,225.000 408.410 C 268.387 426.441,270.749 427.696,276.238 435.627 C 284.941 448.203,284.989 465.642,276.401 495.208 C 265.677 532.132,251.262 560.062,235.155 575.132 C 226.328 583.389,219.788 587.615,208.319 592.471 C 204.018 594.292,194.425 598.349,187.000 601.488 C 162.136 611.997,144.985 624.264,139.143 635.720 C 136.374 641.149,133.995 650.309,134.017 655.460 C 134.113 677.659,152.223 705.122,178.000 722.160 C 188.970 729.410,195.094 732.436,206.030 736.010 C 223.651 741.768,239.125 742.217,255.581 737.449 C 274.941 731.838,291.470 721.927,331.949 691.655 C 365.165 666.815,374.538 661.528,387.508 660.317 C 399.262 659.219,420.405 663.654,432.500 669.755 C 439.428 673.249,446.770 678.279,466.500 693.046 C 514.286 728.812,545.052 742.208,576.000 740.723 C 600.415 739.551,620.123 730.726,638.797 712.605 C 656.150 695.765,665.458 675.578,665.357 655.000 C 665.279 639.185,660.844 628.817,649.616 618.198 C 638.639 607.817,627.297 602.373,601.297 595.009 C 574.447 587.403,565.666 582.259,557.300 569.233 C 545.854 551.413,528.794 499.895,524.439 470.000 C 521.744 451.506,523.982 438.710,531.382 430.304 C 538.558 422.151,542.894 420.146,590.613 402.912 C 607.601 396.776,625.775 389.678,631.000 387.137 C 654.087 375.910,665.000 356.535,665.000 326.774 C 665.000 312.196,662.711 301.384,657.342 290.603 C 653.028 281.939,652.162 280.712,645.738 274.151 C 639.262 267.537,625.913 260.811,614.792 258.560 C 598.827 255.328,585.398 256.757,558.503 264.546 C 528.744 273.166,499.215 279.548,497.416 277.749 C 497.062 277.395,499.893 272.470,503.707 266.803 C 513.672 251.998,516.593 246.483,520.916 234.313 C 526.698 218.031,528.380 206.864,527.715 189.166 C 527.302 178.158,526.521 171.932,524.586 164.203 C 513.531 120.048,485.261 90.740,443.155 79.781 C 432.266 76.947,430.120 76.728,410.500 76.441 C 398.950 76.273,386.594 76.538,383.042 77.030 M431.500 82.546 C 476.505 90.246,507.340 118.837,519.127 163.797 C 526.402 191.545,523.340 220.487,510.411 246.173 C 507.482 251.993,504.796 256.193,493.328 272.890 C 490.605 276.854,490.393 279.250,492.571 281.429 C 495.885 284.742,508.276 283.040,539.753 274.949 C 550.342 272.227,559.485 270.000,560.070 270.000 C 560.694 270.000,560.861 270.863,560.472 272.087 C 559.394 275.483,560.899 280.888,563.374 282.510 C 564.629 283.332,568.320 284.495,571.578 285.094 C 581.242 286.874,581.285 287.067,574.593 298.478 C 570.774 304.989,570.500 305.965,570.500 313.052 C 570.500 319.793,570.809 321.054,573.243 324.248 C 576.323 328.290,583.684 332.112,592.000 333.986 C 598.668 335.488,602.000 337.441,602.000 339.844 C 602.000 340.833,599.364 345.754,596.142 350.779 C 592.920 355.804,589.711 361.960,589.011 364.459 C 585.356 377.517,593.767 386.298,610.000 386.373 C 622.126 386.428,627.501 382.079,624.932 374.293 C 623.703 370.569,620.654 368.757,613.213 367.325 L 608.925 366.500 613.994 358.500 C 618.851 350.834,622.006 342.973,621.994 338.568 C 621.964 327.454,613.353 319.420,597.322 315.552 C 593.375 314.599,589.928 313.256,589.664 312.566 C 589.399 311.876,591.208 307.874,593.685 303.672 C 598.335 295.781,600.143 287.691,598.616 281.608 C 597.117 275.632,589.455 269.601,579.994 266.949 L 575.500 265.689 580.000 264.266 C 582.475 263.483,589.459 262.595,595.520 262.292 C 627.670 260.685,650.326 277.046,658.001 307.410 C 662.239 324.178,660.028 346.569,652.775 360.345 C 644.620 375.836,635.454 381.244,588.375 398.343 C 556.020 410.095,545.784 414.049,539.735 417.135 C 533.990 420.066,525.808 428.093,523.159 433.395 C 520.477 438.766,518.041 449.650,518.017 456.372 C 517.957 473.396,526.350 507.274,539.232 542.000 C 554.000 581.808,562.787 590.008,601.897 600.478 C 634.328 609.160,651.536 621.176,658.163 639.767 C 661.098 648.002,661.021 662.969,657.994 672.500 C 653.648 686.182,647.462 696.485,637.061 707.362 C 615.772 729.625,586.177 739.647,556.836 734.531 C 531.362 730.088,506.314 716.630,463.000 684.111 C 436.779 664.425,423.338 658.312,400.739 655.795 C 377.693 653.228,370.258 656.591,326.500 689.374 C 283.551 721.550,263.991 732.213,242.791 735.007 C 207.280 739.687,163.168 714.470,145.691 679.500 C 141.002 670.119,139.823 665.223,139.851 655.256 C 139.871 648.088,140.300 645.965,142.797 640.683 C 144.405 637.282,147.548 632.446,149.782 629.936 C 157.711 621.024,175.970 610.827,202.500 600.495 C 220.314 593.557,228.660 588.472,239.833 577.750 C 255.292 562.915,268.508 537.829,279.484 502.493 C 291.952 462.350,290.515 440.306,274.512 426.220 C 268.688 421.093,264.308 418.944,236.500 407.568 C 210.225 396.819,192.884 389.284,191.701 388.101 C 191.254 387.654,193.626 387.040,196.973 386.736 C 204.027 386.097,211.547 382.670,214.338 378.824 C 215.406 377.353,216.494 373.909,216.758 371.172 C 217.326 365.260,214.799 359.000,207.606 348.494 C 200.679 338.378,201.227 337.004,213.408 333.961 C 222.029 331.806,227.552 329.211,230.702 325.834 C 233.404 322.938,236.000 316.926,236.000 313.567 C 236.000 308.758,231.725 298.848,226.423 291.366 C 225.092 289.489,225.087 289.056,226.380 287.762 C 227.189 286.954,229.917 286.009,232.442 285.663 C 240.750 284.524,246.000 280.027,246.000 274.050 C 246.000 272.922,246.223 272.000,246.496 272.000 C 246.769 272.000,256.198 274.442,267.450 277.427 C 278.702 280.412,291.271 283.419,295.381 284.110 C 309.049 286.406,309.206 283.223,296.708 257.141 C 283.539 229.657,281.137 221.149,280.298 199.000 C 278.861 161.087,291.067 129.679,315.290 108.962 C 330.375 96.059,351.817 87.184,377.904 83.042 C 392.963 80.651,419.016 80.410,431.500 82.546 M353.007 151.593 C 348.020 153.756,345.077 156.776,342.377 162.500 C 334.071 180.114,349.876 199.509,366.782 192.447 C 384.768 184.934,384.325 157.966,366.110 151.539 C 360.705 149.632,357.499 149.645,353.007 151.593 M432.500 151.879 C 422.621 156.411,417.179 167.523,419.896 177.615 C 424.870 196.086,447.100 199.631,456.574 183.464 C 463.231 172.105,459.471 158.526,448.070 152.750 C 441.746 149.547,438.037 149.339,432.500 151.879 M365.980 157.250 C 371.868 160.259,374.232 163.752,374.770 170.238 C 375.330 176.994,373.362 181.859,368.600 185.492 C 363.509 189.375,357.557 189.885,353.000 186.830 C 348.816 184.025,345.000 176.952,345.000 172.000 C 345.000 166.131,348.821 159.843,353.962 157.250 C 356.416 156.012,359.133 155.000,360.000 155.000 C 360.867 155.000,363.558 156.012,365.980 157.250 M447.774 158.204 C 451.552 160.499,453.674 164.111,454.583 169.792 C 455.438 175.138,453.698 179.969,449.355 184.312 C 443.244 190.423,435.493 190.468,429.627 184.428 C 422.816 177.415,422.625 167.913,429.147 160.486 C 434.148 154.790,440.809 153.974,447.774 158.204 M331.281 216.519 C 327.917 219.883,327.782 220.290,328.215 225.769 C 329.247 238.836,346.435 258.645,364.866 268.011 C 392.159 281.880,422.138 279.398,445.778 261.313 C 460.468 250.075,471.004 235.995,471.787 226.556 C 472.300 220.374,471.098 217.640,466.686 214.950 C 459.453 210.540,454.021 213.298,447.147 224.870 C 439.708 237.391,426.014 248.048,412.869 251.547 C 406.599 253.216,395.415 253.390,389.000 251.919 C 375.206 248.757,360.973 237.841,351.675 223.293 C 344.585 212.201,337.840 209.960,331.281 216.519 M341.390 218.596 C 342.244 218.924,345.436 222.939,348.483 227.518 C 362.259 248.221,381.254 258.760,403.000 257.764 C 423.228 256.837,438.847 247.158,451.326 227.814 C 457.113 218.843,458.619 217.615,462.606 218.616 C 473.125 221.256,463.812 240.335,444.371 255.975 C 429.872 267.638,418.704 271.521,400.000 271.401 C 385.501 271.308,376.978 269.047,364.000 261.853 C 349.826 253.996,333.000 233.901,333.000 224.829 C 333.000 219.777,336.906 216.875,341.390 218.596 M211.566 261.051 C 218.771 262.328,227.000 264.899,227.000 265.873 C 227.000 266.265,224.549 267.419,221.552 268.438 C 211.204 271.955,206.000 278.463,206.000 287.886 C 206.000 292.059,206.908 294.702,211.064 302.622 C 213.849 307.930,215.761 312.632,215.314 313.072 C 214.866 313.512,210.966 314.815,206.646 315.969 C 196.338 318.721,191.892 321.086,188.154 325.805 C 184.282 330.694,182.830 336.828,184.037 343.193 C 185.113 348.869,186.853 352.469,192.289 360.263 C 194.499 363.432,196.089 366.244,195.822 366.512 C 195.554 366.779,193.182 367.400,190.550 367.892 C 187.917 368.384,184.579 369.679,183.132 370.770 C 180.888 372.462,180.506 373.498,180.538 377.794 L 180.576 382.832 177.538 381.272 C 166.486 375.594,151.906 362.640,146.845 354.000 C 145.395 351.525,143.208 346.203,141.984 342.174 C 140.068 335.865,139.822 333.227,140.216 323.174 C 140.955 304.308,147.416 288.042,159.157 275.491 C 165.456 268.758,174.374 263.370,182.500 261.389 C 188.810 259.851,203.807 259.677,211.566 261.051 M238.066 272.035 C 242.665 274.496,239.090 279.508,231.974 280.576 C 225.703 281.518,221.074 283.857,220.434 286.408 C 219.756 289.108,220.808 291.866,225.423 299.480 C 231.978 310.296,232.255 316.679,226.423 322.511 C 223.298 325.635,219.577 327.214,208.634 330.060 C 196.031 333.337,194.911 339.773,204.622 353.123 C 216.693 369.719,213.680 379.946,196.244 381.565 C 189.649 382.178,185.671 380.641,185.189 377.293 C 184.789 374.511,186.968 373.423,194.406 372.692 C 203.141 371.834,204.283 368.430,198.545 360.359 C 190.858 349.547,189.590 346.785,189.200 340.000 C 188.882 334.462,189.173 332.993,191.163 330.073 C 194.047 325.844,200.202 322.663,209.945 320.365 C 222.174 317.481,223.609 314.013,217.105 303.060 C 210.586 292.083,209.556 285.379,213.469 279.407 C 217.116 273.841,232.708 269.168,238.066 272.035 M584.958 274.479 C 591.068 277.575,593.991 281.852,593.996 287.703 C 594.001 292.601,592.916 295.335,587.767 303.405 C 581.267 313.594,583.138 317.372,596.247 320.531 C 611.115 324.113,616.232 328.892,616.152 339.125 C 616.110 344.614,613.304 350.937,607.009 359.727 C 600.555 368.740,601.908 372.133,612.299 373.000 C 618.968 373.556,621.410 375.536,619.390 378.750 C 618.529 380.120,616.627 380.563,610.635 380.792 C 601.073 381.157,596.430 379.274,594.296 374.166 C 591.852 368.316,593.442 363.602,602.219 350.677 C 604.866 346.780,606.447 343.210,606.761 340.425 C 607.457 334.252,604.772 331.941,593.668 329.156 C 573.841 324.183,570.686 317.162,580.131 299.031 C 587.152 285.555,586.033 282.327,573.701 280.478 C 567.892 279.607,564.587 277.239,565.578 274.658 C 567.255 270.286,576.516 270.201,584.958 274.479 M391.994 312.871 C 378.549 317.302,370.309 329.362,371.265 343.211 C 372.330 358.654,382.388 369.409,397.006 370.734 C 409.457 371.863,420.016 366.230,425.482 355.542 C 428.103 350.419,428.500 348.578,428.500 341.571 C 428.500 334.968,428.052 332.624,426.039 328.683 C 423.169 323.065,416.402 316.484,411.306 314.354 C 407.071 312.585,395.547 311.700,391.994 312.871 M410.990 320.010 C 428.609 329.077,427.766 355.844,409.601 364.094 C 400.189 368.368,386.913 365.003,381.004 356.846 C 375.569 349.344,374.726 338.379,378.947 330.104 C 381.465 325.169,388.097 319.457,392.838 318.140 C 397.621 316.811,406.565 317.733,410.990 320.010 M387.252 404.515 C 369.086 413.729,365.620 438.044,380.406 452.556 C 395.256 467.132,419.453 461.443,426.865 441.631 C 432.013 427.871,426.710 412.603,414.246 405.298 C 410.434 403.064,408.162 402.535,401.070 402.226 C 393.359 401.891,391.974 402.121,387.252 404.515 M410.832 409.603 C 432.069 420.186,425.921 452.911,402.182 455.651 C 391.645 456.867,380.681 449.398,377.556 438.878 C 375.642 432.431,375.609 429.616,377.380 423.731 C 379.337 417.230,382.402 413.384,388.340 409.978 C 395.312 405.980,403.293 405.847,410.832 409.603 M391.994 496.875 C 386.758 498.592,383.114 501.080,378.788 505.891 C 365.720 520.426,369.849 542.968,387.277 552.231 C 393.236 555.399,406.671 555.455,412.500 552.336 C 426.091 545.065,432.218 529.497,426.964 515.581 C 424.387 508.754,418.386 501.752,412.545 498.758 C 408.149 496.504,396.406 495.428,391.994 496.875 M409.507 503.351 C 425.939 511.003,428.738 532.509,414.850 544.397 C 403.224 554.348,386.141 550.648,378.707 536.568 C 375.688 530.849,375.706 520.117,378.745 514.357 C 381.334 509.452,388.190 503.306,392.460 502.064 C 398.018 500.448,404.290 500.922,409.507 503.351 M243.407 582.407 C 237.049 583.950,231.685 587.202,230.230 590.395 C 228.539 594.106,230.420 599.648,233.997 601.498 C 237.712 603.420,240.493 603.392,246.412 601.375 C 250.704 599.913,251.333 599.904,252.719 601.290 C 254.058 602.629,254.094 603.699,252.999 609.506 C 250.498 622.759,253.432 631.825,261.809 636.734 C 266.899 639.717,272.534 640.152,285.708 638.581 C 292.832 637.731,292.929 637.750,294.084 640.284 C 295.008 642.313,294.913 644.348,293.626 650.046 C 288.103 674.504,297.762 687.186,317.163 680.947 C 329.775 676.892,334.755 668.664,328.428 662.337 C 326.140 660.049,325.282 659.824,320.678 660.299 C 317.830 660.593,314.416 661.167,313.092 661.575 C 310.917 662.244,310.746 662.083,311.327 659.908 C 311.681 658.584,312.480 653.892,313.104 649.482 C 314.798 637.506,313.205 630.940,307.133 624.867 C 300.760 618.495,294.714 617.183,282.373 619.496 C 271.220 621.585,270.345 620.995,271.924 612.454 C 274.966 596.000,270.547 586.022,258.655 582.490 C 252.779 580.745,250.306 580.732,243.407 582.407 M259.961 588.480 C 267.046 592.143,268.865 597.989,266.991 611.064 C 265.864 618.922,265.903 620.203,267.334 622.387 C 269.631 625.893,271.438 626.174,281.791 624.636 C 295.408 622.611,301.820 624.368,306.019 631.272 C 308.692 635.667,309.333 641.373,308.012 649.000 C 305.927 661.036,305.751 662.870,306.421 665.540 C 307.026 667.954,307.434 668.154,310.794 667.693 C 312.832 667.414,316.415 666.599,318.756 665.884 C 322.464 664.751,323.218 664.789,324.609 666.180 C 327.248 668.820,325.410 671.923,319.651 674.554 C 311.501 678.276,307.152 678.601,303.015 675.800 C 296.594 671.452,295.708 666.415,298.657 651.029 C 301.865 634.294,298.084 630.973,279.294 634.022 C 270.794 635.402,265.398 634.085,261.310 629.634 C 257.203 625.162,256.421 620.650,257.996 610.523 C 259.063 603.668,259.044 601.865,257.883 599.441 C 255.798 595.092,252.283 594.295,244.960 596.512 C 240.485 597.867,238.364 598.089,237.157 597.329 C 233.230 594.856,235.571 589.773,241.419 588.075 C 246.428 586.620,256.804 586.847,259.961 588.480 M544.530 595.531 C 533.591 599.710,528.675 611.461,531.993 625.500 C 532.513 627.700,532.680 630.340,532.365 631.367 C 531.753 633.358,532.570 633.355,516.776 631.425 C 505.263 630.018,495.868 635.393,492.063 645.562 C 489.607 652.126,489.474 657.368,491.518 667.084 C 492.352 671.052,492.857 674.476,492.639 674.694 C 492.421 674.912,490.171 674.568,487.639 673.931 C 481.531 672.393,476.605 673.416,473.965 676.771 C 469.288 682.718,474.877 690.102,487.007 694.002 C 505.974 700.101,515.876 686.935,510.406 662.888 C 509.530 659.035,509.095 654.760,509.439 653.388 L 510.065 650.894 523.427 651.587 C 536.024 652.240,537.058 652.150,541.461 650.019 C 550.315 645.733,553.377 637.095,551.013 623.077 C 549.420 613.635,549.740 613.331,559.509 615.001 C 566.665 616.226,567.277 616.185,569.809 614.312 C 574.195 611.066,575.345 607.761,573.567 603.506 C 572.394 600.698,570.890 599.381,566.632 597.432 C 559.717 594.266,550.023 593.432,544.530 595.531 M560.427 600.516 C 566.048 602.221,569.000 604.495,569.000 607.120 C 569.000 610.000,565.704 611.172,560.790 610.038 C 558.430 609.494,554.598 609.038,552.273 609.024 C 546.585 608.992,544.470 611.979,545.374 618.770 C 547.260 632.942,547.273 633.995,545.613 638.242 C 542.628 645.878,540.786 646.539,523.330 646.241 L 508.159 645.982 506.080 648.626 C 503.656 651.707,503.530 655.044,505.500 664.000 C 508.198 676.267,506.926 684.837,501.883 688.369 C 495.898 692.562,478.884 687.834,478.187 681.785 C 477.755 678.042,481.174 677.322,488.465 679.620 C 495.932 681.974,497.525 681.044,497.432 674.383 C 497.394 671.697,496.739 666.234,495.977 662.241 C 494.840 656.290,494.817 654.132,495.853 650.259 C 498.486 640.415,506.110 635.090,515.738 636.370 C 533.574 638.742,535.264 638.551,536.858 633.977 C 537.609 631.822,537.591 628.703,536.795 623.221 C 534.958 610.562,537.260 604.603,545.421 600.896 C 550.379 598.645,553.959 598.554,560.427 600.516 "
        stroke="none" fill="white" strokeWidth="2" fill-rule="evenodd" />
</svg>